<svg width="429" height="148" viewBox="0 0 429 148" fill="none" xmlns="http://www.w3.org/2000/svg">
<path d="M117.668 87.9958C124.121 90.0923 127.756 97.1188 124.361 102.992C119.329 111.696 112.101 119.02 103.31 124.176C90.9589 131.42 76.38 133.882 62.3349 131.097C48.2898 128.312 35.7539 120.472 27.1019 109.063C18.4498 97.654 14.2825 83.4681 15.3893 69.1923C16.4962 54.9165 22.8002 41.5424 33.1074 31.6034C43.4146 21.6643 57.009 15.8506 71.3156 15.2635C85.6221 14.6764 99.6472 19.3566 110.734 28.4177C118.626 34.8672 124.638 43.2172 128.268 52.5927C130.718 58.9193 126.043 65.3014 119.344 66.3783V66.3783C112.646 67.4552 106.516 62.6947 103.137 56.812C101.096 53.2594 98.412 50.0764 95.1871 47.4408C88.7563 42.185 80.6213 39.4703 72.323 39.8109C64.0247 40.1514 56.1394 43.5236 50.1609 49.2886C44.1824 55.0535 40.5259 62.811 39.8839 71.0914C39.2419 79.3718 41.6591 87.6002 46.6775 94.2177C51.696 100.835 58.9672 105.383 67.1139 106.998C75.2605 108.614 83.7168 107.185 90.8808 102.984C94.4734 100.876 97.616 98.1453 100.18 94.9497C104.426 89.6582 111.216 85.8994 117.668 87.9958V87.9958Z" fill="#D9D9D9"/>
<circle cx="74" cy="74" r="22" fill="#D9D9D9"/>
<path d="M160.21 90.516C159.658 90.884 158.907 91.298 157.956 91.758C157.005 92.218 155.886 92.6013 154.598 92.908C153.341 93.2147 151.961 93.368 150.458 93.368C147.882 93.3373 145.551 92.8773 143.466 91.988C141.411 91.0987 139.663 89.8873 138.222 88.354C136.781 86.8207 135.661 85.0573 134.864 83.064C134.097 81.04 133.714 78.8933 133.714 76.624C133.714 74.14 134.113 71.8553 134.91 69.77C135.738 67.654 136.888 65.8293 138.36 64.296C139.832 62.732 141.565 61.5207 143.558 60.662C145.582 59.8033 147.79 59.374 150.182 59.374C152.175 59.374 153.985 59.65 155.61 60.202C157.235 60.7233 158.631 61.352 159.796 62.088L158.002 66.228C157.082 65.6147 155.963 65.032 154.644 64.48C153.356 63.928 151.915 63.652 150.32 63.652C148.695 63.652 147.161 63.974 145.72 64.618C144.279 65.262 143.006 66.1667 141.902 67.332C140.798 68.4973 139.924 69.862 139.28 71.426C138.667 72.9593 138.36 74.6153 138.36 76.394C138.36 78.2033 138.636 79.89 139.188 81.454C139.771 82.9873 140.583 84.3213 141.626 85.456C142.699 86.5907 143.987 87.48 145.49 88.124C146.993 88.768 148.679 89.09 150.55 89.09C152.237 89.09 153.739 88.8293 155.058 88.308C156.377 87.7867 157.465 87.204 158.324 86.56L160.21 90.516ZM166.665 73.956H170.943V93H166.665V73.956ZM166.343 67.056C166.343 66.3813 166.604 65.814 167.125 65.354C167.677 64.894 168.275 64.664 168.919 64.664C169.563 64.664 170.131 64.894 170.621 65.354C171.143 65.814 171.403 66.3813 171.403 67.056C171.403 67.7613 171.143 68.344 170.621 68.804C170.131 69.2333 169.563 69.448 168.919 69.448C168.275 69.448 167.677 69.218 167.125 68.758C166.604 68.298 166.343 67.7307 166.343 67.056ZM182.163 73.956L182.531 78.602L182.347 77.866C182.96 76.4553 183.957 75.336 185.337 74.508C186.717 73.6493 188.312 73.22 190.121 73.22C191.93 73.22 193.402 73.7567 194.537 74.83C195.702 75.8727 196.3 77.2373 196.331 78.924V93H192.007V80.442C191.976 79.3993 191.67 78.556 191.087 77.912C190.535 77.2373 189.661 76.9 188.465 76.9C187.361 76.9 186.364 77.2067 185.475 77.82C184.586 78.4333 183.88 79.2767 183.359 80.35C182.868 81.4233 182.623 82.6653 182.623 84.076V93H178.345V73.956H182.163ZM212.603 93.46C210.426 93.46 208.555 93.0307 206.991 92.172C205.427 91.2827 204.216 90.0867 203.357 88.584C202.529 87.0507 202.115 85.3027 202.115 83.34C202.115 81.4693 202.59 79.7673 203.541 78.234C204.492 76.7007 205.764 75.474 207.359 74.554C208.954 73.634 210.732 73.174 212.695 73.174C215.21 73.174 217.295 73.91 218.951 75.382C220.607 76.854 221.726 78.878 222.309 81.454L206.623 86.974L205.611 84.444L218.491 79.752L217.571 80.35C217.203 79.338 216.59 78.464 215.731 77.728C214.872 76.9613 213.753 76.578 212.373 76.578C211.208 76.578 210.165 76.8693 209.245 77.452C208.325 78.004 207.604 78.7707 207.083 79.752C206.562 80.7333 206.301 81.8527 206.301 83.11C206.301 84.4287 206.577 85.594 207.129 86.606C207.681 87.5873 208.432 88.3693 209.383 88.952C210.364 89.504 211.468 89.78 212.695 89.78C213.523 89.78 214.32 89.6267 215.087 89.32C215.884 89.0133 216.62 88.6147 217.295 88.124L219.273 91.298C218.322 91.942 217.249 92.4633 216.053 92.862C214.888 93.2607 213.738 93.46 212.603 93.46ZM231.119 59.742L242.067 87.25L239.537 86.744L249.933 59.742H255.131L240.457 94.518L225.829 59.742H231.119ZM260.103 73.956H264.381V93H260.103V73.956ZM259.781 67.056C259.781 66.3813 260.042 65.814 260.563 65.354C261.115 64.894 261.713 64.664 262.357 64.664C263.001 64.664 263.568 64.894 264.059 65.354C264.58 65.814 264.841 66.3813 264.841 67.056C264.841 67.7613 264.58 68.344 264.059 68.804C263.568 69.2333 263.001 69.448 262.357 69.448C261.713 69.448 261.115 69.218 260.563 68.758C260.042 68.298 259.781 67.7307 259.781 67.056ZM280.615 93.46C278.437 93.46 276.567 93.0307 275.003 92.172C273.439 91.2827 272.227 90.0867 271.369 88.584C270.541 87.0507 270.127 85.3027 270.127 83.34C270.127 81.4693 270.602 79.7673 271.553 78.234C272.503 76.7007 273.776 75.474 275.371 74.554C276.965 73.634 278.744 73.174 280.707 73.174C283.221 73.174 285.307 73.91 286.963 75.382C288.619 76.854 289.738 78.878 290.321 81.454L274.635 86.974L273.623 84.444L286.503 79.752L285.583 80.35C285.215 79.338 284.601 78.464 283.743 77.728C282.884 76.9613 281.765 76.578 280.385 76.578C279.219 76.578 278.177 76.8693 277.257 77.452C276.337 78.004 275.616 78.7707 275.095 79.752C274.573 80.7333 274.313 81.8527 274.313 83.11C274.313 84.4287 274.589 85.594 275.141 86.606C275.693 87.5873 276.444 88.3693 277.395 88.952C278.376 89.504 279.48 89.78 280.707 89.78C281.535 89.78 282.332 89.6267 283.099 89.32C283.896 89.0133 284.632 88.6147 285.307 88.124L287.285 91.298C286.334 91.942 285.261 92.4633 284.065 92.862C282.899 93.2607 281.749 93.46 280.615 93.46ZM307.332 73.956L312.944 86.79L312.116 86.882L317.36 73.956H321.546L312.806 94.15L306.688 81.086L301.122 94.15L292.29 73.956H296.476L302.41 87.388L300.938 87.112L305.17 77.268L303.652 73.956H307.332ZM336.074 59.742C338.497 59.742 340.567 60.156 342.284 60.984C344.001 61.7813 345.32 62.9467 346.24 64.48C347.191 66.0133 347.666 67.8687 347.666 70.046C347.666 71.3647 347.467 72.668 347.068 73.956C346.669 75.2133 346.025 76.3633 345.136 77.406C344.277 78.418 343.143 79.2307 341.732 79.844C340.321 80.4573 338.604 80.764 336.58 80.764H331.658V93H327.196V59.742H336.074ZM336.534 76.486C337.853 76.486 338.941 76.2713 339.8 75.842C340.659 75.4127 341.333 74.876 341.824 74.232C342.315 73.5573 342.667 72.852 342.882 72.116C343.097 71.38 343.204 70.7207 343.204 70.138C343.204 69.4633 343.097 68.7733 342.882 68.068C342.667 67.332 342.299 66.6727 341.778 66.09C341.287 65.4767 340.628 64.986 339.8 64.618C339.003 64.2193 338.006 64.02 336.81 64.02H331.658V76.486H336.534ZM351.84 83.294C351.84 81.3927 352.284 79.6753 353.174 78.142C354.094 76.6087 355.351 75.3973 356.946 74.508C358.54 73.6187 360.35 73.174 362.374 73.174C364.459 73.174 366.284 73.6187 367.848 74.508C369.412 75.3973 370.623 76.6087 371.482 78.142C372.34 79.6753 372.77 81.3927 372.77 83.294C372.77 85.1953 372.34 86.928 371.482 88.492C370.623 90.0253 369.396 91.2367 367.802 92.126C366.238 93.0153 364.413 93.46 362.328 93.46C360.304 93.46 358.494 93.046 356.9 92.218C355.336 91.3593 354.094 90.1787 353.174 88.676C352.284 87.1427 351.84 85.3487 351.84 83.294ZM356.118 83.34C356.118 84.5667 356.394 85.686 356.946 86.698C357.498 87.6793 358.234 88.4613 359.154 89.044C360.104 89.6267 361.147 89.918 362.282 89.918C363.478 89.918 364.536 89.6267 365.456 89.044C366.406 88.4613 367.142 87.6793 367.664 86.698C368.185 85.686 368.446 84.5667 368.446 83.34C368.446 82.1133 368.185 81.0093 367.664 80.028C367.142 79.016 366.406 78.2187 365.456 77.636C364.536 77.0227 363.478 76.716 362.282 76.716C361.116 76.716 360.058 77.0227 359.108 77.636C358.188 78.2493 357.452 79.062 356.9 80.074C356.378 81.0553 356.118 82.144 356.118 83.34ZM378.562 73.956H382.84V93H378.562V73.956ZM378.24 67.056C378.24 66.3813 378.501 65.814 379.022 65.354C379.574 64.894 380.172 64.664 380.816 64.664C381.46 64.664 382.027 64.894 382.518 65.354C383.039 65.814 383.3 66.3813 383.3 67.056C383.3 67.7613 383.039 68.344 382.518 68.804C382.027 69.2333 381.46 69.448 380.816 69.448C380.172 69.448 379.574 69.218 379.022 68.758C378.501 68.298 378.24 67.7307 378.24 67.056ZM394.06 73.956L394.428 78.602L394.244 77.866C394.857 76.4553 395.854 75.336 397.234 74.508C398.614 73.6493 400.208 73.22 402.018 73.22C403.827 73.22 405.299 73.7567 406.434 74.83C407.599 75.8727 408.197 77.2373 408.228 78.924V93H403.904V80.442C403.873 79.3993 403.566 78.556 402.984 77.912C402.432 77.2373 401.558 76.9 400.362 76.9C399.258 76.9 398.261 77.2067 397.372 77.82C396.482 78.4333 395.777 79.2767 395.256 80.35C394.765 81.4233 394.52 82.6653 394.52 84.076V93H390.242V73.956H394.06ZM417.507 65.584H421.785V74.048H427.029V77.406H421.785V93H417.507V77.406H414.011V74.048H417.507V65.584Z" fill="white"/>
</svg>
